<?xml version="1.0" standalone="no"?>
<!DOCTYPE svg PUBLIC "-//W3C//DTD SVG 20010904//EN"
 "http://www.w3.org/TR/2001/REC-SVG-20010904/DTD/svg10.dtd">
<svg version="1.0" xmlns="http://www.w3.org/2000/svg"
 width="260.000000pt" height="260.000000pt" viewBox="0 0 260.000000 260.000000"
 preserveAspectRatio="xMidYMid meet">
<metadata>
Created by potrace 1.11, written by Peter Selinger 2001-2013
</metadata>
<g transform="translate(0.000000,260.000000) scale(0.100000,-0.100000)"
fill="#000000" stroke="none">
<path d="M1048 2055 c-12 -25 -26 -45 -30 -45 -4 0 -8 -4 -8 -9 0 -9 -58 -113
-165 -296 -33 -55 -66 -115 -74 -132 -8 -18 -19 -33 -23 -33 -4 0 -8 -4 -8
-10 0 -5 -18 -39 -40 -75 -22 -36 -40 -70 -40 -75 0 -6 -5 -10 -11 -10 -5 0
-8 -4 -4 -9 3 -5 1 -12 -4 -15 -5 -4 -26 -37 -47 -74 -20 -37 -42 -70 -48 -74
-6 -4 -7 -8 -2 -8 5 0 2 -8 -6 -17 -9 -10 -17 -22 -19 -28 -4 -9 -103 -184
-151 -266 -10 -16 -14 -30 -10 -30 4 -1 122 -2 263 -3 l257 -1 21 32 c25 39
50 35 -211 37 -108 0 -199 4 -203 8 -6 6 30 84 46 98 3 3 13 21 22 40 10 19
35 64 57 99 22 34 40 66 40 71 0 4 9 19 21 34 11 14 17 26 12 26 -4 0 -3 4 2
8 13 8 32 40 126 208 39 70 44 79 49 84 3 3 10 14 16 25 36 67 65 118 87 152
20 33 63 108 101 179 13 24 21 18 52 -36 10 -19 22 -37 25 -40 3 -3 12 -20 20
-37 8 -18 17 -33 21 -33 5 0 8 -4 8 -10 0 -5 14 -33 31 -62 18 -29 41 -69 51
-88 11 -19 29 -50 40 -67 11 -18 17 -33 13 -33 -3 0 3 -10 14 -22 11 -11 18
-24 16 -28 -3 -5 2 -10 10 -14 8 -3 15 -14 15 -25 0 -11 4 -21 8 -23 11 -4
122 -195 122 -209 0 -5 4 -9 8 -9 4 0 20 -24 35 -52 15 -29 32 -60 37 -68 55
-89 97 -170 87 -171 -7 -1 -144 -2 -306 -3 -228 -1 -295 -4 -299 -14 -2 -7
-11 -19 -19 -28 -8 -8 -12 -18 -9 -22 4 -4 105 -7 224 -7 119 0 223 -4 230 -8
6 -5 12 -4 12 0 0 5 67 8 149 8 159 -1 160 0 128 48 -9 15 -17 29 -17 32 0 4
-14 26 -30 51 -17 24 -27 44 -23 44 4 0 3 4 -3 8 -6 4 -17 19 -25 34 -8 15
-43 76 -78 135 -35 60 -75 128 -89 153 -13 25 -41 72 -61 105 -65 109 -71 120
-77 138 -4 9 -10 17 -15 17 -5 0 -9 5 -9 10 0 6 -16 35 -35 65 -19 30 -31 55
-27 55 4 0 2 4 -4 8 -5 4 -54 85 -108 180 -54 94 -102 172 -107 172 -5 0 -19
-20 -31 -45z"/>
<path d="M1462 1782 c-87 -150 -84 -139 -55 -170 17 -17 27 -23 30 -15 3 7 15
28 28 47 13 19 21 37 17 40 -3 3 0 6 6 6 7 0 12 6 12 14 0 8 6 16 13 19 7 2
34 -33 65 -86 28 -49 52 -91 52 -92 0 -3 63 -111 90 -155 5 -8 26 -44 46 -80
21 -36 103 -177 182 -315 80 -137 153 -264 162 -281 l18 -31 -607 1 c-533 1
-606 3 -603 16 2 8 8 16 13 18 5 2 9 8 9 14 0 5 22 47 48 91 26 45 51 89 55
97 4 8 18 33 32 55 14 22 42 69 62 105 20 36 39 67 42 70 3 3 16 25 29 50 31
60 56 104 62 110 3 3 10 14 16 25 6 11 22 40 36 65 l25 46 -22 32 -22 32 -29
-52 c-16 -28 -36 -63 -44 -77 -9 -14 -33 -57 -55 -96 -21 -38 -42 -72 -45 -75
-3 -3 -19 -30 -34 -60 -16 -30 -31 -57 -35 -60 -3 -3 -14 -21 -25 -40 -40 -76
-69 -125 -76 -130 -3 -3 -16 -25 -29 -50 -12 -25 -26 -52 -31 -60 -39 -65 -98
-168 -102 -181 -6 -14 61 -16 723 -16 l729 0 -29 51 c-16 28 -37 65 -48 83
-10 17 -63 110 -118 205 -55 95 -102 175 -105 178 -3 3 -14 24 -25 47 -11 24
-23 43 -27 43 -5 0 -8 4 -8 9 0 5 -20 44 -45 85 -25 42 -45 81 -45 86 0 6 -5
10 -11 10 -5 0 -8 4 -5 9 4 5 2 11 -2 13 -5 1 -26 34 -48 73 -21 38 -43 77
-49 86 -5 9 -22 38 -37 65 -16 27 -39 67 -52 89 -14 22 -35 59 -47 83 -13 23
-26 42 -30 42 -3 0 -29 -40 -57 -88z"/>
</g>
</svg>
